<?xml version="1.0" encoding="utf-8"?>
<!-- Generator: Adobe Illustrator 24.2.3, SVG Export Plug-In . SVG Version: 6.00 Build 0)  -->
<svg version="1.1" id="Layer_1" xmlns="http://www.w3.org/2000/svg" xmlns:xlink="http://www.w3.org/1999/xlink" x="0px" y="0px"
	 viewBox="0 0 645.5 157.2" style="enable-background:new 0 0 645.5 157.2;" xml:space="preserve">
<style type="text/css">
	.st0{fill:#FFFFFF;}
</style>
<g>
	<g>
		<path class="st0" d="M71,48.1L50.3,68.9L29.6,48.2l19.3-19.3c0.8-0.8,2.1-0.8,2.9,0L71,48.1z"/>
		<path class="st0" d="M100.1,77.2c0.8,0.8,0.8,2.1,0,2.9L80.8,99.4l-0.1,0.1l-9.5,9.5l-0.1,0.1l-19.2,19.2c-0.8,0.8-2.1,0.8-2.9,0
			L29.5,109L20,99.5l-0.1-0.1L0.6,80.1c-0.8-0.8-0.8-2.1,0-2.9L19.8,58l20.7,20.7l0.1,0.1l9.5,9.5l0.1,0.1l0.1-0.1l9.5-9.5l0.1-0.1
			L80.9,58L100.1,77.2z"/>
	</g>
	<g>
		<path class="st0" d="M136.7,68c4.7-4.9,10.4-7.4,17-7.4c4.4,0,8.3,1.1,11.8,3.3c3.5,2.2,6.2,5.2,8.2,9.1V43.3h3.9v66.8h-3.9V98.8
			c-2,3.9-4.7,6.9-8.2,9.1c-3.5,2.2-7.4,3.3-11.8,3.3c-6.6,0-12.3-2.5-17-7.4c-4.7-4.9-7.1-10.9-7.1-17.9
			C129.6,78.9,132,72.9,136.7,68z M139.5,101.1c3.9,4.2,8.6,6.3,14.2,6.3c5.5,0,10.3-2,14.2-6.1c3.9-4.1,5.8-9.3,5.8-15.5
			c0-6-1.9-11-5.8-15.3c-3.9-4.2-8.6-6.3-14.2-6.3s-10.4,2.1-14.2,6.3c-3.9,4.2-5.8,9.3-5.8,15.3S135.6,96.9,139.5,101.1z"/>
		<path class="st0" d="M191.6,45.9c0.6-0.6,1.4-0.9,2.2-0.9s1.6,0.3,2.2,0.9c0.6,0.6,0.9,1.4,0.9,2.2c0,0.9-0.3,1.6-0.9,2.2
			c-0.6,0.6-1.4,0.9-2.2,0.9s-1.6-0.3-2.2-0.9c-0.6-0.6-0.9-1.4-0.9-2.2C190.7,47.2,191,46.5,191.6,45.9z M191.8,61.6h3.9v48.5h-3.9
			V61.6z"/>
		<path class="st0" d="M201.5,122.6c5.5-3.5,8.3-10.2,8.3-20.1V61.6h3.9v40.8c0,11.9-3.7,19.8-11,23.8L201.5,122.6z M209.6,45.9
			c0.6-0.6,1.4-0.9,2.2-0.9c0.9,0,1.6,0.3,2.2,0.9c0.6,0.6,0.9,1.4,0.9,2.2c0,0.9-0.3,1.6-0.9,2.2c-0.6,0.6-1.4,0.9-2.2,0.9
			c-0.9,0-1.6-0.3-2.2-0.9c-0.6-0.6-0.9-1.4-0.9-2.2C208.7,47.2,209,46.5,209.6,45.9z"/>
		<path class="st0" d="M227.7,45.9c0.6-0.6,1.4-0.9,2.2-0.9s1.6,0.3,2.2,0.9c0.6,0.6,0.9,1.4,0.9,2.2c0,0.9-0.3,1.6-0.9,2.2
			c-0.6,0.6-1.4,0.9-2.2,0.9s-1.6-0.3-2.2-0.9c-0.6-0.6-0.9-1.4-0.9-2.2C226.8,47.2,227.1,46.5,227.7,45.9z M227.9,61.6h3.9v48.5
			h-3.9V61.6z"/>
		<path class="st0" d="M247.8,65.3h-7.4v-3.7h7.4V49.5h3.9v12.1h18.8v3.7h-18.8V95c0,8.3,2.9,12.5,8.7,12.5c1.6,0,3.1-0.3,4.6-0.8
			c1.5-0.5,2.6-1.1,3.3-1.6l1.1-0.7l1.7,3.1c-3,2.4-6.6,3.7-10.8,3.7c-3.7,0-6.7-1.2-9-3.7c-2.4-2.4-3.6-6.6-3.6-12.5V65.3z"/>
		<path class="st0" d="M284.6,68c4.7-4.9,10.4-7.4,17-7.4c4.4,0,8.3,1.1,11.8,3.3s6.2,5.2,8.2,9.1V61.6h3.9v48.5h-3.9V98.8
			c-2,3.9-4.7,6.9-8.2,9.1c-3.5,2.2-7.4,3.3-11.8,3.3c-6.6,0-12.3-2.5-17-7.4c-4.7-4.9-7.1-10.9-7.1-17.9
			C277.5,78.9,279.9,72.9,284.6,68z M287.4,101.1c3.9,4.2,8.6,6.3,14.2,6.3c5.5,0,10.3-2.1,14.2-6.2c3.9-4.1,5.8-9.3,5.8-15.4
			c0-6-1.9-11-5.8-15.3c-3.9-4.2-8.6-6.3-14.2-6.3c-5.6,0-10.4,2.1-14.2,6.3c-3.9,4.2-5.8,9.3-5.8,15.3S283.5,96.9,287.4,101.1z"/>
		<path class="st0" d="M339.7,43.3h3.9v66.8h-3.9V43.3z"/>
		<path class="st0" d="M356.2,59.9h11.3l10.5,25.4c0.8,1.9,1.6,4,2.3,6.2c0.7,2.3,1.3,4,1.6,5.3l0.5,1.9c1.3-4.7,2.8-9.2,4.5-13.4
			l10.4-25.5h11.3l-20.7,50.3h-10.9L356.2,59.9z"/>
		<path class="st0" d="M423.4,66.5c5-5.1,11.1-7.7,18.4-7.7c6.7,0,12.4,2.5,17.1,7.6c4.7,5,7.1,11.1,7.1,18.2l-0.3,4.4h-38.1
			c0.8,3.9,2.6,6.9,5.5,9c2.8,2.1,6.2,3.2,10.2,3.2c5.5,0,10.3-1.5,14.4-4.4l4.5,8.3c-5.9,4-12.2,6-19.1,6c-7.5,0-13.9-2.4-19.2-7.1
			c-5.3-4.7-7.9-11-7.9-19C415.9,77.8,418.4,71.6,423.4,66.5z M455,80.7c-0.5-3.6-2.1-6.5-4.7-8.7c-2.6-2.2-5.6-3.3-9.1-3.3
			c-3.2,0-6.2,1.1-8.7,3.3c-2.6,2.2-4.2,5.1-5,8.7H455z"/>
		<path class="st0" d="M478.6,114.5c3,0,5.3-0.5,6.9-1.6c1.6-1.1,3-2.9,4.2-5.6l1-2L469,59.9h11.6l12.1,26.8l3.2,7.9l3.2-8.4
			L510,59.9h11.4l-22.9,52.5c-3.7,8.5-10.3,12.7-19.8,12.7V114.5z"/>
		<path class="st0" d="M529.2,94.6c4.9,4,10.3,6,15.9,6c2.6,0,4.9-0.5,6.9-1.4c2-0.9,3-2.2,3-3.9c0-0.4-0.1-0.8-0.2-1.1
			c-0.1-0.3-0.3-0.7-0.6-1c-0.3-0.3-0.5-0.6-0.8-0.8c-0.2-0.2-0.6-0.5-1.1-0.7c-0.5-0.2-0.9-0.4-1.3-0.6c-0.4-0.2-0.9-0.3-1.5-0.5
			c-0.6-0.2-1.1-0.3-1.5-0.5c-0.4-0.1-0.9-0.3-1.6-0.5c-0.7-0.2-1.3-0.3-1.7-0.5c-2.8-0.8-5.1-1.5-6.9-2.2c-1.8-0.6-3.6-1.5-5.4-2.7
			c-1.8-1.2-3.2-2.6-4.1-4.3c-0.9-1.7-1.3-3.8-1.3-6.1c0-4.6,1.9-8.3,5.8-11c3.9-2.7,8.2-4.1,13.1-4.1c6.2,0,12.1,1.7,18,5.2
			l-4.2,9.1c-4.4-2.5-9-3.8-13.7-3.8c-2,0-3.7,0.4-5.2,1.2c-1.5,0.8-2.3,1.9-2.3,3.1c0,1.1,0.5,2,1.4,2.7c0.9,0.7,1.9,1.2,2.8,1.5
			c0.9,0.3,2.4,0.6,4.4,1c5.7,1.2,10.3,3,13.8,5.5c3.5,2.4,5.3,6,5.3,10.7c0,5.3-2.2,9.4-6.6,12c-4.4,2.7-9.3,4-14.8,4
			c-4.6,0-8.6-0.8-12.1-2.3c-3.5-1.5-6.2-3.2-8.1-5L529.2,94.6z"/>
		<path class="st0" d="M581.5,66.5c5-5.1,11.1-7.7,18.4-7.7c6.7,0,12.4,2.5,17.1,7.6s7.1,11.1,7.1,18.2l-0.3,4.4h-38.1
			c0.8,3.9,2.6,6.9,5.5,9c2.8,2.1,6.2,3.2,10.2,3.2c5.5,0,10.3-1.5,14.4-4.4l4.5,8.3c-5.9,4-12.2,6-19.1,6c-7.5,0-13.9-2.4-19.2-7.1
			c-5.3-4.7-7.9-11-7.9-19C574,77.8,576.5,71.6,581.5,66.5z M613.1,80.7c-0.5-3.6-2.1-6.5-4.7-8.7c-2.6-2.2-5.6-3.3-9.1-3.3
			c-3.2,0-6.2,1.1-8.7,3.3c-2.6,2.2-4.2,5.1-5,8.7H613.1z"/>
		<path class="st0" d="M634.2,43.3h11.3v66.8h-11.3V43.3z"/>
	</g>
</g>
</svg>
